<svg xmlns="http://www.w3.org/2000/svg" width="270" height="36" viewBox="0 0 270 36" fill="none"><g clip-path="url(#clip0_155_920)"><mask id="mask0_155_920" style="mask-type:luminance" maskUnits="userSpaceOnUse" x="0" y="0" width="270" height="36"><path d="M270 0H0V35.4745H270V0Z" fill="white"></path></mask><g mask="url(#mask0_155_920)"><path d="M2.3584 33.1066V29.555H16.4174C17.3244 29.555 17.7779 29.0996 17.7779 28.1889V24.9104C17.7779 24.0302 17.4 23.5293 16.6441 23.4078L7.80058 21.5864C4.17245 20.8578 2.3584 18.4142 2.3584 14.2554V11.7054C2.3584 6.60559 4.89808 4.05566 9.97745 4.05566H20.363L23.4015 6.42345V9.97513H10.2496C9.34253 9.97513 8.88901 10.4305 8.88901 11.3412V14.3009C8.88901 15.1509 9.26693 15.6518 10.0228 15.8035L18.8664 17.5794C22.4945 18.3079 24.3085 20.7517 24.3085 24.9104V27.8247C24.3085 32.9245 21.7689 35.4744 16.6895 35.4744H5.39694L2.3584 33.1066ZM30.3806 35.4744V4.05566H51.7865V9.97513H36.9112V16.3499H50.426V22.2694H36.9112V29.555H51.7865V35.4744H30.3806ZM57.2975 27.8247V11.7054C57.2975 6.60559 59.8372 4.05566 64.9166 4.05566H75.2567C80.3361 4.05566 82.8758 6.60559 82.8758 11.7054V27.8247C82.8758 32.9245 80.3361 35.4744 75.2567 35.4744H64.9166C59.8372 35.4744 57.2975 32.9245 57.2975 27.8247ZM63.8281 28.1889C63.8281 29.0996 64.2816 29.555 65.1887 29.555H74.9846C75.8916 29.555 76.3452 29.0996 76.3452 28.1889V11.3412C76.3452 10.4305 75.8916 9.97513 74.9846 9.97513H65.1887C64.2816 9.97513 63.8281 10.4305 63.8281 11.3412V28.1889ZM100.755 35.4744V4.05566H115.993C121.073 4.05566 123.613 6.60559 123.613 11.7054V16.8964C123.613 20.6908 122.207 23.0586 119.395 23.9997L124.52 34.1084L123.749 35.4744H118.125L112.592 24.5461H107.286V35.4744H100.755ZM107.286 18.6267H115.721C116.628 18.6267 117.082 18.1713 117.082 17.2606V11.3412C117.082 10.4305 116.628 9.97513 115.721 9.97513H107.286V18.6267Z" fill="#EEF8FF"></path><path d="M164.797 28.0981V18.8091C164.797 13.8914 167.246 11.4326 172.144 11.4326H180.579L183.301 13.4816V16.8967H172.507C171.539 16.8967 171.056 17.3824 171.056 18.3538V28.5534C171.056 29.5248 171.539 30.0105 172.507 30.0105H183.301V33.4256L180.579 35.4747H172.144C167.246 35.4747 164.797 33.0158 164.797 28.0981ZM188.633 35.4747V1.7793H194.891V20.4939L203.191 11.4326H209.358L209.857 12.4799L201.558 21.4501L210.492 34.4274L209.993 35.4747H203.871L197.431 25.958L194.891 28.7356V35.4747H188.633ZM214.578 28.0981V18.8091C214.578 13.8914 217.027 11.4326 221.925 11.4326H227.82C232.718 11.4326 235.167 13.8914 235.167 18.8091V25.7759H220.836V28.5534C220.836 29.5248 221.32 30.0105 222.287 30.0105H234.26V33.4256L231.539 35.4747H221.925C217.027 35.4747 214.578 33.0158 214.578 28.0981ZM220.836 20.9493H228.909V18.3538C228.909 17.3824 228.425 16.8967 227.457 16.8967H222.287C221.32 16.8967 220.836 17.3824 220.836 18.3538V20.9493ZM241.155 28.0981V4.05601H247.413V11.4326H255.214V16.8967H247.413V28.5534C247.413 29.5248 247.897 30.0105 248.865 30.0105H255.667V33.4256L252.946 35.4747H248.502C243.604 35.4747 241.155 33.0158 241.155 28.0981Z" fill="#EEF8FF"></path><path d="M260.24 35.4743V28.9629H266.997V35.4743H260.24Z" fill="#660CFF"></path><path fill-rule="evenodd" clip-rule="evenodd" d="M141.505 23.9866C140.721 19.2228 141.607 16.1385 144.151 14.7248C146.694 16.1385 147.58 19.2228 146.796 23.9866C149.47 25.5249 150.815 27.2716 150.825 29.2296C148.843 28.9143 147.506 28.7515 146.806 28.7428C147.1 31.4825 148.299 33.7264 150.401 35.4745C155.747 33.4124 159.867 28.7325 161.324 22.9467C160.282 22.9364 159.323 22.9276 158.484 22.9173C156.134 22.8792 154.677 22.7749 154.677 22.5933C154.677 22.4214 156.134 22.3071 158.484 22.269C159.37 22.2589 160.383 22.2398 161.49 22.2295C161.665 21.3993 161.784 20.54 161.849 19.6716L160.53 19.6525C158.18 19.6144 156.724 19.5089 156.724 19.327C156.724 19.1554 158.18 19.041 160.53 19.0028L161.886 18.9838C161.895 18.7638 161.895 18.5439 161.895 18.3151C161.895 17.6756 161.868 17.0551 161.803 16.4335C159.692 16.4246 157.784 16.4055 156.264 16.3864C153.913 16.3483 152.456 16.2427 152.456 16.0622C152.456 15.8893 153.913 15.7749 156.264 15.7368C157.765 15.7177 159.637 15.6986 161.71 15.6897C161.618 14.9917 161.48 14.3141 161.306 13.6365C159.572 13.6263 158.014 13.6073 156.715 13.5882C154.364 13.55 152.908 13.4458 152.908 13.264C152.908 13.0924 154.364 12.9779 156.715 12.9398C157.959 12.9207 159.443 12.9004 161.102 12.8915C160.752 11.7078 160.282 10.5713 159.711 9.50207C157.387 9.4919 155.304 9.47282 153.654 9.45376C151.304 9.41561 149.847 9.31008 149.847 9.12956C149.847 8.95793 151.304 8.84225 153.654 8.8041C155.204 8.77612 157.138 8.76595 159.286 8.75705C158.724 7.81116 158.088 6.92377 157.379 6.10248L156.715 6.09231C154.364 6.05416 152.908 5.94991 152.908 5.76812C152.908 5.59647 154.364 5.48205 156.715 5.44393H156.789C153.59 2.08246 149.137 0 144.225 0C139.579 0 135.358 1.85362 132.205 4.8896C133.099 4.89852 133.928 4.90868 134.666 4.91885C137.016 4.957 138.472 5.06125 138.472 5.24304C138.472 5.41467 137.016 5.52909 134.666 5.56724C133.734 5.5863 132.674 5.59647 131.504 5.60539C130.997 6.14952 130.526 6.71399 130.093 7.31533C132.693 7.32423 135.035 7.34332 136.841 7.37254C139.191 7.41069 140.648 7.51495 140.648 7.69674C140.648 7.86837 139.191 7.98281 136.841 8.02093C134.905 8.05019 132.37 8.06925 129.568 8.07941C129.052 8.87147 128.59 9.71185 128.204 10.5802C130.112 10.5903 131.835 10.6094 133.246 10.6285C135.597 10.6666 137.053 10.7721 137.053 10.9527C137.053 11.1243 135.597 11.24 133.246 11.2781C131.762 11.2972 129.928 11.3163 127.89 11.3252C127.697 11.8121 127.522 12.3092 127.365 12.8241C128.361 12.8343 129.282 12.8432 130.093 12.8533C132.444 12.8915 133.9 12.997 133.9 13.1775C133.9 13.3492 132.444 13.4649 130.093 13.503C129.227 13.5119 128.241 13.531 127.171 13.5411C126.96 14.3624 126.793 15.2028 126.692 16.0711C129.983 16.0711 132.979 16.0902 135.191 16.1283C137.541 16.1665 138.998 16.272 138.998 16.4525C138.998 16.6254 137.541 16.7399 135.191 16.778C132.96 16.8161 129.936 16.8352 126.619 16.8352C126.581 17.3221 126.562 17.8192 126.562 18.3252C126.562 18.6113 126.572 18.8884 126.581 19.1656C128.222 19.1745 129.697 19.1936 130.932 19.2126C133.283 19.2508 134.739 19.3563 134.739 19.5368C134.739 19.7097 133.283 19.8242 130.932 19.8623C129.707 19.8814 128.249 19.9004 126.628 19.9093C126.738 21.2278 126.978 22.5067 127.346 23.7298L127.965 23.7385C130.315 23.7769 131.772 23.8822 131.772 24.0641C131.772 24.2357 130.315 24.35 127.965 24.3882L127.549 24.3972C129.273 29.4877 133.099 33.5459 137.956 35.4554C140.03 33.7174 141.219 31.4825 141.505 28.7618C140.804 28.7706 139.468 28.9231 137.486 29.2487C137.496 27.301 138.832 25.5527 141.515 24.0056L141.505 23.9866Z" fill="#660CFF"></path><path fill-rule="evenodd" clip-rule="evenodd" d="M144.151 19.1174C144.759 19.1174 145.257 18.6012 145.257 17.9719C145.257 17.3413 144.759 16.8252 144.151 16.8252C143.543 16.8252 143.045 17.3413 143.045 17.9719C143.045 18.6012 143.543 19.1174 144.151 19.1174Z" fill="#660CFF"></path></g></g><defs><clipPath id="clip0_155_920"><rect width="270" height="35.4745" fill="white"></rect></clipPath></defs></svg>